<svg width="208" height="300" viewBox="0 0 208 300" fill="none" xmlns="http://www.w3.org/2000/svg">
<path fill-rule="evenodd" clip-rule="evenodd" d="M164.96 1.27416C166.795 2.33801 168.215 3.99273 168.988 5.96799C169.761 7.94326 169.842 10.1223 169.216 12.1492L135.447 121.874H197.754C199.585 121.873 201.376 122.409 202.906 123.414C204.436 124.42 205.639 125.852 206.364 127.533C207.09 129.214 207.308 131.071 206.991 132.874C206.673 134.677 205.835 136.348 204.579 137.68L54.5787 297.055C53.1274 298.599 51.196 299.605 49.0995 299.91C47.003 300.215 44.8649 299.801 43.0338 298.736C41.2027 297.67 39.7865 296.016 39.0161 294.042C38.2456 292.069 38.1664 289.892 38.7912 287.868L72.56 178.124H10.2537C8.42271 178.125 6.63154 177.589 5.10135 176.584C3.57116 175.578 2.36893 174.147 1.64309 172.466C0.917236 170.785 0.699539 168.928 1.01687 167.124C1.33419 165.321 2.17265 163.65 3.42874 162.318L153.429 2.94291C154.878 1.40165 156.807 0.396075 158.9 0.0896989C160.994 -0.216677 163.13 0.194161 164.96 1.25541V1.27416ZM31.9475 159.374H85.2537C86.7209 159.374 88.1676 159.718 89.4776 160.379C90.7875 161.039 91.9241 161.998 92.7959 163.178C93.6677 164.358 94.2504 165.727 94.4971 167.173C94.7438 168.619 94.6476 170.103 94.2162 171.505L68.5662 254.812L176.041 140.624H122.754C121.287 140.624 119.84 140.28 118.53 139.62C117.22 138.959 116.083 138 115.212 136.82C114.34 135.64 113.757 134.272 113.51 132.825C113.264 131.379 113.36 129.895 113.791 128.493L139.441 45.1867L31.9475 159.374Z" fill="black"/>
</svg>
